<?xml version="1.0" standalone="no"?>
<!DOCTYPE svg PUBLIC "-//W3C//DTD SVG 1.1//EN" "http://www.w3.org/Graphics/SVG/1.1/DTD/svg11.dtd" >
<!--
2013-9-30: Created.
-->
<svg>
<metadata>
Created by iconfont
</metadata>
<defs>

<font id="iconfont" horiz-adv-x="1024" >
  <font-face
    font-family="iconfont"
    font-weight="500"
    font-stretch="normal"
    units-per-em="1024"
    ascent="896"
    descent="-128"
  />
    <missing-glyph />
    
    <glyph glyph-name="meishi" unicode="&#58946;" d="M982.86772 109.345269c-0.935038 0.945269-1.870077 1.845524-2.852174 2.714066L750.427822 317.487468c-14.529923 12.975959-36.850128 11.754476-49.853708-2.775448-12.995396-14.524808-11.744246-36.839898 2.790793-49.850639l229.583632-205.433248c26.737596-26.727366 26.737596-70.04399 0-96.771355-13.375959-13.386189-30.901279-20.056266-48.416368-20.056266-17.514066 0-35.039386 6.6711-48.390793 20.056266L630.708129 192.251662c-13.000512 14.535038-35.314578 15.745269-49.845524 2.74578-14.489003-12.995396-15.745269-35.278772-2.74578-49.808696l205.397442-229.598977c0.910486-0.970844 1.773913-1.941688 2.709974-2.846036 26.243478-26.279284 61.176471-40.743734 98.305882-40.743734 37.160102 0 72.057289 14.46445 98.336573 40.743734C1037.060047-33.065985 1037.060047 55.158056 982.86772 109.345269M990.834983 827.677749c-20.966752 20.987212-48.878772 32.567775-78.569821 32.567775-16.604604 0-33.015857-3.751407-47.928389-10.849105C803.435495 828.089003 661.889715 776.089003 559.454932 719.187724c-10.51867-5.841432-20.189258-11.682864-29.482353-17.51509-3.731969 5.906905-8.307928 11.312532-13.727877 15.948849L328.748027 878.005115C315.504037 889.337084 299.167464 894.965729 282.863628 894.965729c-18.114578 0-36.189258-6.945269-49.91509-20.673146l-32.924808-32.924808c-9.803581-9.802558-16.121739-21.830179-18.979028-34.485934-12.654731-2.811253-24.673146-9.16624-34.476726-18.942199l-19.50179-19.533504-19.506905-19.502813c-9.756522-9.766752-16.122762-21.758568-18.934015-34.413299-12.654731-2.807161-24.657801-9.140665-34.461381-18.944246l-33.014834-33.015857c-26.065473-26.110486-27.673657-67.892583-3.62046-95.905882l208.392839-242.771355c0.381586-0.416368 0.767263-0.86445 1.184655-1.292072 2.451151-2.714066 22.456266-24.428645 54.511509-46.941176L67.766953 61.757545c-21.003581-20.956522-32.535038-48.873657-32.535038-78.559591 0-29.681841 11.577494-57.592839 32.535038-78.595396 20.991304-20.992327 48.909463-32.532992 78.588235-32.532992 29.686957 0 57.604092 11.540665 78.560614 32.532992l765.943734 765.954987C1034.141377 713.863939 1034.141377 784.362148 990.834983 827.677749L990.834983 827.677749 990.834983 827.677749zM282.863628 824.372379l187.496675-160.388747c-21.689003-20.127877-39.452685-40.041944-52.805115-56.449105l-167.617391 183.918159L282.863628 824.372379 282.863628 824.372379 282.863628 824.372379zM279.493807 369.844501 71.100968 612.610742l32.981074 33.019949L293.470277 472.867519l26.137084 26.147315L157.475392 698.988235l19.51202 19.50179 19.498721 19.533504 197.293095-159.269565 6.644501 6.635294c-7.686957-10.489003-11.682864-16.890026-11.682864-16.890026l0-185.757545-56.235294-56.245524C299.849817 347.378005 279.493807 369.844501 279.493807 369.844501L279.493807 369.844501 279.493807 369.844501zM940.918871 720.437852 174.999689-45.476215c-7.889514-7.890537-18.282353-11.850639-28.644501-11.850639-10.390793 0-20.752941 3.960102-28.673146 11.850639-15.810742 15.851662-15.810742 41.505882 0 57.317647l253.605115 253.605115c4.550384 2.821483 8.876726 6.130946 12.790793 10.056266l54.576982 54.551407c3.899744 3.890537 7.225575 8.232225 10.077749 12.848082l10.604604 10.605627L459.337285 542.011253c0 0 29.858824 57.389258 134.388747 115.475192 102.825575 57.109974 252.608696 110.883887 298.446036 126.842967 6.233248 3.538619 13.147826 5.312532 20.093095 5.312532 10.371355 0 20.752941-3.961125 28.653708-11.886445C956.766441 761.944757 956.766441 736.284399 940.918871 720.437852L940.918871 720.437852 940.918871 720.437852zM940.918871 720.437852"  horiz-adv-x="1024" />

    
    <glyph glyph-name="gengduo" unicode="&#58945;" d="M1177.6-128 51.2-128C22.9376-128 0-105.0624 0-76.8L0-42.666667C0-14.404267 22.9376 8.533333 51.2 8.533333L1177.6 8.533333C1205.8624 8.533333 1228.8-14.404267 1228.8-42.666667L1228.8-76.8C1228.8-105.0624 1205.8624-128 1177.6-128ZM1177.6 315.733333 51.2 315.733333C22.9376 315.733333 0 338.670933 0 366.933333L0 401.066667C0 429.329067 22.9376 452.266667 51.2 452.266667L1177.6 452.266667C1205.8624 452.266667 1228.8 429.329067 1228.8 401.066667L1228.8 366.933333C1228.8 338.670933 1205.8624 315.733333 1177.6 315.733333ZM1177.6 759.466667 51.2 759.466667C22.9376 759.466667 0 782.404267 0 810.666667L0 844.8C0 873.0624 22.9376 896 51.2 896L1177.6 896C1205.8624 896 1228.8 873.0624 1228.8 844.8L1228.8 810.666667C1228.8 782.404267 1205.8624 759.466667 1177.6 759.466667Z"  horiz-adv-x="1229" />

    
    <glyph glyph-name="sousuo0101" unicode="&#58941;" d="M1114.035124-27.531705l-237.178129 273.066667c60.520234 69.031504 97.507 159.203907 97.507 258.240582 0 216.625567-175.598889 392.224457-392.224457 392.224457-216.625567 0-392.224457-175.598889-392.224457-392.224457 0-216.625567 175.598889-392.224457 392.224457-392.224457 75.228651 0 145.279939 21.572345 204.976501 58.284554l243.689055-280.597376c22.984353-22.984353 60.245677-22.984353 83.190807 0C1137.019477-87.73816 1137.019477-50.516059 1114.035124-27.531705zM307.621641 503.775543c0 151.633975 122.923145 274.55712 274.55712 274.55712 151.633975 0 274.55712-122.923145 274.55712-274.55712 0-151.633975-122.923145-274.55712-274.55712-274.55712C430.544786 229.218424 307.621641 352.141569 307.621641 503.775543z"  horiz-adv-x="1322" />

    
    <glyph glyph-name="gengduo1" unicode="&#59040;" d="M169.35268 383.881229m-106.229126 0a106.229126 106.229126 0 1 1 212.458253 0 106.229126 106.229126 0 1 1-212.458253 0ZM510.561441 383.881229m-106.229126 0a106.229126 106.229126 0 1 1 212.458252 0 106.229126 106.229126 0 1 1-212.458252 0ZM851.770202 383.881229m-106.229127 0a106.229126 106.229126 0 1 1 212.458253 0 106.229126 106.229126 0 1 1-212.458253 0Z"  horiz-adv-x="1024" />

    
    <glyph glyph-name="xinzeng" unicode="&#59013;" d="M469.333333 426.666667V597.333333c0 25.6 17.066667 42.666667 42.666667 42.666667s42.666667-21.333333 42.666667-42.666667v-170.666666h170.666666c25.6 0 42.666667-17.066667 42.666667-42.666667s-21.333333-42.666667-42.666667-42.666667h-170.666666v-170.666666c0-25.6-17.066667-42.666667-42.666667-42.666667s-42.666667 21.333333-42.666667 42.666667v170.666666H298.666667c-25.6 0-42.666667 17.066667-42.666667 42.666667s21.333333 42.666667 42.666667 42.666667h170.666666z m477.866667-311.466667c-12.8-21.333333-38.4-25.6-59.733333-12.8-21.333333 12.8-25.6 38.4-12.8 59.733333 12.8 21.333333 25.6 42.666667 34.133333 68.266667 21.333333 51.2 29.866667 102.4 29.866667 157.866667 0 234.666667-192 426.666667-426.666667 426.666666S85.333333 618.666667 85.333333 384s192-426.666667 426.666667-426.666667c76.8 0 153.6 21.333333 217.6 59.733334 4.266667 0 4.266667 4.266667 8.533333 4.266666 21.333333 12.8 46.933333 4.266667 59.733334-12.8 12.8-21.333333 4.266667-46.933333-12.8-59.733333-4.266667 0-4.266667-4.266667-8.533334-4.266667-81.066667-46.933333-170.666667-72.533333-264.533333-72.533333-281.6 0-512 230.4-512 512S230.4 896 512 896s512-230.4 512-512c0-64-12.8-128-34.133333-187.733333-12.8-29.866667-25.6-55.466667-42.666667-81.066667z"  horiz-adv-x="1024" />

    
    <glyph glyph-name="fenlei" unicode="&#58943;" d="M435.2 588.8A128 128 0 1 1 307.2 460.8h128V588.8zM307.2 768A179.2 179.2 0 0 0 486.4 588.8v-179.2H307.2a179.2 179.2 0 1 0 0 358.4z m409.6-307.2A128 128 0 1 1 588.8 588.8v-128H716.8z m0 307.2a179.2 179.2 0 1 0 0-358.4h-179.2V588.8A179.2 179.2 0 0 0 716.8 768z m-409.6-460.8A128 128 0 1 1 435.2 179.2v128H307.2z m0 51.2h179.2V179.2A179.2 179.2 0 1 0 307.2 358.4z m374.6816-51.2a25.6 25.6 0 0 0 0 51.2H716.8a179.2 179.2 0 1 0-179.2-179.2v153.6a25.6 25.6 0 0 0 51.2 0v-153.6a128 128 0 1 1 128 128h-34.9184z"  horiz-adv-x="1024" />

    
    <glyph glyph-name="guanzhuxuanzhong" unicode="&#58926;" d="M882.346667 326.186667c56.106667-99.2-75.306667-209.92-139.093334-256a55.466667 55.466667 0 0 0-64 0c-64 45.866667-195.2 156.586667-139.093333 256a103.04 103.04 0 0 0 164.693333 21.333333 9.386667 9.386667 0 0 1 13.653334 0 103.04 103.04 0 0 0 164.693333-21.333333zM815.36 558.933333a195.413333 195.413333 0 0 1-320 56.96 17.92 17.92 0 0 0-26.026667 0A195.413333 195.413333 0 0 1 149.333333 558.933333C54.613333 348.586667 381.226667 117.12 463.36 64a33.28 33.28 0 0 1 36.693333 0c81.92 53.12 408.533333 284.586667 315.306667 494.933333z m-390.186667-28.586666a32 32 0 0 0-40.106666-21.333334 64 64 0 0 1-81.493334-74.666666 32 32 0 1 0-62.506666-13.44 128 128 0 0 0 162.986666 149.333333 32 32 0 0 0 21.12-39.893333z"  horiz-adv-x="1024" />

    
    <glyph glyph-name="guanzhuweixuanzhong" unicode="&#58927;" d="M481.706667 44.373333a64 64 0 0 0-34.773334 10.453334c-96.64 64-405.333333 287.573333-308.053333 505.386666a215.68 215.68 0 0 0 342.826667 73.386667 214.613333 214.613333 0 0 0 170.666666 54.613333 216.96 216.96 0 0 0 170.666667-128 232.32 232.32 0 0 0-6.4-194.56l-57.173333 26.026667a168.96 168.96 0 0 1 6.4 141.653333 151.68 151.68 0 0 1-248.96 44.373334 50.56 50.56 0 0 0-70.613334 0A151.68 151.68 0 0 1 197.333333 533.333333C119.466667 358.186667 420.693333 149.333333 481.92 108.373333c20.266667 13.866667 53.12 36.48 90.24 66.346667l40.106667-49.92c-39.04-31.36-73.6-55.466667-95.786667-69.973333a64 64 0 0 0-34.773333-10.453334zM710.826667 27.946667a87.253333 87.253333 0 0 0-50.986667 16.426666c-142.933333 102.826667-197.12 211.413333-149.333333 298.666667A135.04 135.04 0 0 0 710.826667 384a135.04 135.04 0 0 0 199.466666-42.666667c48.64-85.333333-5.333333-194.773333-149.333333-298.666666a87.466667 87.466667 0 0 0-50.133333-14.72z m-81.92 318.72a74.88 74.88 0 0 1-14.293334-1.493334 71.04 71.04 0 0 1-47.36-34.773333c-45.013333-79.573333 88.106667-184.106667 129.92-213.333333a23.466667 23.466667 0 0 1 27.306667 0c42.666667 30.08 174.933333 134.613333 129.92 213.333333a71.04 71.04 0 0 1-47.36 34.773333 71.893333 71.893333 0 0 1-66.133333-21.333333 42.666667 42.666667 0 0 0-60.16 0 71.466667 71.466667 0 0 1-51.84 22.826667z m65.706666 21.333333z m32.426667 0zM315.093333 403.626667a32 32 0 0 0-32 32 95.573333 95.573333 0 0 0 95.573334 95.573333 32 32 0 0 0 0-64 31.573333 31.573333 0 0 1-31.573334-31.573333 32 32 0 0 0-32-32z"  horiz-adv-x="1024" />

    
    <glyph glyph-name="shouyeweixuanzhong" unicode="&#58929;" d="M170.666667 432.426667a32 32 0 0 0-21.333334 56.533333L436.266667 731.093333a119.893333 119.893333 0 0 0 151.68 0L874.666667 488.96a32 32 0 1 0-42.666667-48.853333L546.56 682.666667a56.746667 56.746667 0 0 1-68.906667 0L192 440.106667a31.786667 31.786667 0 0 0-21.333333-7.68zM704 10.026667H320a133.12 133.12 0 0 0-134.186667 131.626666v352a32 32 0 1 0 64 0v-352A69.12 69.12 0 0 1 320 74.026667h384a69.12 69.12 0 0 1 70.186667 67.626666v352a32 32 0 0 0 64 0v-352A133.12 133.12 0 0 0 704 10.026667zM597.333333 205.866667h-170.666666a32 32 0 1 0 0 64h170.666666a32 32 0 0 0 0-64z"  horiz-adv-x="1024" />

    
    <glyph glyph-name="shouyexuanzhong" unicode="&#58930;" d="M859.093333 489.386667L582.826667 723.2a113.706667 113.706667 0 0 1-141.653334 0l-277.333333-234.666667a43.733333 43.733333 0 0 1 28.373333-77.226666h638.506667a43.733333 43.733333 0 0 1 28.373333 78.08zM814.933333 485.333333v-362.666666a103.893333 103.893333 0 0 0-105.386666-102.613334H661.333333a42.666667 42.666667 0 0 0-42.666666 42.666667v149.333333a78.293333 78.293333 0 0 1-31.146667 60.373334A122.026667 122.026667 0 0 1 512 297.386667c-58.88 0-106.666667-38.186667-106.666667-85.333334v-149.333333a42.666667 42.666667 0 0 0-42.666666-42.666667h-48.213334a103.893333 103.893333 0 0 0-105.386666 102.613334v362.666666z"  horiz-adv-x="1024" />

    
    <glyph glyph-name="zhanghaoweixuanzhong" unicode="&#58933;" d="M512 117.333333A330.666667 330.666667 0 1 0 842.666667 448 328.96 328.96 0 0 0 512 117.333333z m0 597.333334A266.666667 266.666667 0 1 1 778.666667 448 266.88 266.88 0 0 1 512 714.666667zM328.96-16.853333a32 32 0 0 0-30.506667 42.666666 224 224 0 0 0 426.666667 0 32 32 0 1 0-61.013333-19.2 160 160 0 0 1-305.28 0 32 32 0 0 0-29.866667-23.466666zM576 288h-128a32 32 0 0 0 0 64h128a32 32 0 0 0 0-64z"  horiz-adv-x="1024" />

    
    <glyph glyph-name="zhanghaoxuanzhong" unicode="&#58934;" d="M657.28-5.973333a56.32 56.32 0 0 1 42.666667 94.293333 253.013333 253.013333 0 0 1-373.973334 0 56.32 56.32 0 0 1 42.666667-94.293333zM512 768a320 320 0 1 1 320-320A320 320 0 0 1 512 768z m133.546667-486.613333A190.72 190.72 0 0 0 512 234.666667a190.72 190.72 0 0 0-133.546667 46.72 32 32 0 0 0 45.44 45.013333A128 128 0 0 1 512 298.666667a128 128 0 0 1 88.106667 27.946666 32 32 0 0 0 45.44-45.013333z"  horiz-adv-x="1024" />

    
    <glyph glyph-name="xinzeng1" unicode="&#58961;" d="M512 896C229.376 896 0 666.624 0 384s229.376-512 512-512 512 229.376 512 512S794.624 896 512 896z m210.432-569.344h-149.504v-149.504c-1.536-32.256-28.16-57.344-60.416-57.344-32.256 0-58.88 25.088-60.416 57.344v149.504H301.568c-32.256 1.536-57.344 28.16-57.344 60.416 0 32.256 25.088 58.88 57.344 60.416h149.504V597.504c-1.024 22.528 10.24 43.52 29.184 55.296 19.456 11.776 43.008 11.776 62.464 0 19.456-11.776 30.72-32.768 29.184-55.296v-149.504H721.92c22.528 1.024 43.52-10.24 55.296-29.184 11.776-19.456 11.776-43.008 0-62.464-11.776-19.456-32.768-30.72-54.784-29.696z m0 0"  horiz-adv-x="1024" />

    
    <glyph glyph-name="fenlei1" unicode="&#58931;" d="M309.1 764.8c-97.6 0-176.7-79.1-176.7-176.7s79.1-176.7 176.7-176.7h176.7V588.1c0 97.5-79.1 176.7-176.7 176.7zM893.5 588.1c0 97.6-79.1 176.7-176.7 176.7s-176.7-79.1-176.7-176.7v-176.7h176.7c97.6 0 176.7 79.1 176.7 176.7zM132.4 180.3c0-97.6 79.1-176.7 176.7-176.7s176.7 79.1 176.7 176.7V357H309.1c-97.6 0-176.7-79.1-176.7-176.7zM716.9 357H540.2v-176.7c0-97.6 79.1-176.7 176.7-176.7s176.7 79.1 176.7 176.7S814.4 357 716.9 357z"  horiz-adv-x="1024" />

    
    <glyph glyph-name="fanhui" unicode="&#59052;" d="M766.976-125.952c-10.24 0-20.48 3.584-28.672 10.752l-509.952 472.576c-15.872 14.336-15.872 38.4 0 52.736l509.952 472.576c15.872 14.336 40.96 14.336 56.832 0 15.872-14.336 15.872-38.4 0-52.736l-481.28-445.952 481.28-445.952c15.872-14.336 15.872-38.4 0-52.736-7.68-7.168-17.92-11.264-28.16-11.264z"  horiz-adv-x="1024" />

    
    <glyph glyph-name="icon-test" unicode="&#58885;" d="M261.43638 465.599352c-19.214315 0-34.585766 15.371452-34.585767 38.428629C226.850613 523.242296 242.222065 538.613747 261.43638 538.613747h238.257502c19.214315 0 34.585766-15.371452 34.585766-34.585766 0-23.057178-15.371452-38.428629-34.585766-38.428629H261.43638zM261.43638 600.099554A34.585766 34.585766 0 0 0 226.850613 634.685321c0 23.057178 15.371452 38.428629 34.585767 38.428629h403.500608c19.214315 0 38.428629-15.371452 38.428629-38.428629 0-19.214315-19.214315-34.585766-38.428629-34.585767H261.43638zM107.721862 822.985604C84.664685 822.985604 69.293233 838.357056 69.293233 857.571371 69.293233 880.628548 84.664685 896 107.721862 896h111.443025c23.057178 0 38.428629-15.371452 38.42863-38.428629 0-19.214315-15.371452-34.585766-38.42863-34.585767H107.721862zM703.365617 388.742093l49.957218-153.714517h161.400243c19.214315 0 38.428629-15.371452 38.42863-34.585767 0-11.528589-7.685726-23.057178-15.371452-30.742903l-130.65734-96.071574 49.957218-153.714517c3.842863-19.214315-3.842863-38.428629-26.90004-46.114355-11.528589-3.842863-23.057178 0-30.742904 7.685726l-130.657339 92.22871-130.65734-92.22871c-15.371452-15.371452-38.428629-11.528589-53.800081 7.685726-7.685726 7.685726-7.685726 23.057178-3.842863 34.585766l49.957218 149.871654-130.65734 96.071574a36.507198 36.507198 0 0 0-7.685726 49.957218c7.685726 11.528589 19.214315 19.214315 30.742904 15.371452h161.400243l49.957218 153.714517c3.842863 19.214315 26.900041 30.742903 46.114355 26.90004 11.528589-3.842863 19.214315-15.371452 23.057178-26.90004z m-11.528589-199.828873l-23.057177 69.171533-23.057178-69.171533c-3.842863-15.371452-19.214315-26.900041-34.585766-26.90004h-76.857259l61.485807-42.271492c11.528589-11.528589 19.214315-26.900041 15.371452-42.271493l-23.057178-69.171532 57.642944 42.271492c11.528589 7.685726 30.742903 11.528589 46.114355 0l57.642944-42.271492-23.057177 69.171532a38.428629 38.428629 0 0 0 15.371451 42.271493l57.642944 42.271492h-73.014395c-15.371452 0-30.742903 11.528589-34.585767 26.90004zM334.450775 822.985604C315.236461 822.985604 296.022146 838.357056 296.022146 857.571371c0 23.057178 19.214315 38.428629 38.428629 38.428629h488.043593c19.214315 0 34.585766-15.371452 34.585766-38.428629v-445.772101c0-19.214315-15.371452-34.585766-34.585766-34.585766-23.057178 0-38.428629 15.371452-38.428629 34.585766V822.985604H334.450775zM69.293233 857.571371C69.293233 880.628548 84.664685 896 107.721862 896c19.214315 0 34.585766-15.371452 34.585767-38.428629v-910.758515h192.143146c23.057178 0 38.428629-15.371452 38.42863-38.42863 0-19.214315-15.371452-34.585766-38.42863-34.585766H107.721862c-23.057178 0-38.428629 15.371452-38.428629 34.585766V857.571371z"  horiz-adv-x="1024" />

    
    <glyph glyph-name="icon-test1" unicode="&#58917;" d="M902.946307 392.17559c0 19.629268 16.357723 35.98699 39.258535 35.98699 19.629268 0 39.258535-16.357723 39.258535-35.98699v-402.399985c0-32.715446-13.086178-62.159347-35.98699-85.060159a130.861784 130.861784 0 0 0-85.06016-32.715446h-654.308918a130.861784 130.861784 0 0 0-85.060159 32.715446 118.757069 118.757069 0 0 0-35.986991 85.060159V385.632501c0 22.900812 16.357723 39.258535 39.258535 39.258535 22.900812 0 39.258535-16.357723 39.258536-39.258535v-395.856896c0-9.814634 6.543089-22.900812 13.086178-29.443901 6.543089-6.543089 16.357723-13.086178 29.443901-13.086178h654.308918c9.814634 0 22.900812 6.543089 29.443902 13.086178 6.543089 9.814634 13.086178 19.629268 13.086178 29.443901V392.17559zM651.037374 496.865017c3.271545 22.900812 26.172357 32.715446 45.801624 29.443901 22.900812-6.543089 32.715446-26.172357 29.443901-49.073169a225.736577 225.736577 0 0 0-71.973981-107.960971c-35.98699-26.172357-78.51707-42.53008-124.318694-42.53008s-88.331704 16.357723-124.318695 42.53008a225.736577 225.736577 0 0 0-71.973981 107.960971c-6.543089 22.900812 6.543089 42.53008 29.443902 49.073169 19.629268 3.271545 39.258535-6.543089 45.801624-29.443901 6.543089-26.172357 22.900812-49.073169 45.801624-65.430892 19.629268-16.357723 45.801624-26.172357 75.245526-26.172357 26.172357 0 55.616258 9.814634 75.245525 26.172357s35.98699 39.258535 45.801625 65.430892zM29.443901 637.541434C42.53008 653.899157 65.430892 660.442246 85.060159 650.627613 101.417882 637.541434 107.960971 614.640622 98.146338 595.011355 91.603249 585.196721 85.060159 575.382087 81.788615 565.567453c-3.271545-13.086178-3.271545-22.900812-3.271545-35.98699 0-32.715446 13.086178-65.430892 35.986991-88.331704s52.344713-35.98699 88.331704-35.986991c29.443901 0 55.616258 9.814634 75.245525 26.172357 22.900812 16.357723 35.98699 39.258535 45.801624 65.430892 3.271545 22.900812 26.172357 32.715446 45.801625 29.443901 22.900812-6.543089 32.715446-26.172357 29.443901-49.073169a225.736577 225.736577 0 0 0-71.973981-107.960971c-35.98699-26.172357-78.51707-42.53008-124.318694-42.53008-55.616258 0-107.960971 22.900812-143.947962 62.159347A197.601293 197.601293 0 0 0 0 529.580463C0 549.20973 3.271545 568.838998 6.543089 585.196721 13.086178 604.825988 19.629268 621.183711 29.443901 637.541434zM1030.536546 630.998345c13.086178-19.629268 6.543089-42.53008-13.086178-52.344713s-42.53008-3.271545-52.344714 13.086178l-130.861783 225.736577H202.835765C179.934952 817.476387 163.57723 837.105654 163.57723 856.734922 163.57723 879.635734 179.934952 895.993457 202.835765 895.993457h654.308918c13.086178 0 26.172357-6.543089 32.715446-19.629268l140.676417-245.365844zM451.473154 71.56422c-22.900812 0-39.258535 16.357723-39.258536 35.986991 0 22.900812 16.357723 39.258535 39.258536 39.258535h163.577229c22.900812 0 39.258535-16.357723 39.258535-39.258535 0-19.629268-16.357723-35.98699-39.258535-35.986991h-163.577229zM94.874793 591.73981C85.060159 575.382087 58.887803 568.838998 42.53008 578.653632A38.277072 38.277072 0 0 0 26.172357 630.998345L170.120319 876.364189A35.98699 35.98699 0 0 0 202.835765 895.993457h654.308918c19.629268 0 39.258535-16.357723 39.258535-39.258535 0-19.629268-19.629268-39.258535-39.258535-39.258535H225.736577l-130.861784-225.736577zM961.83411 595.011355C948.747931 614.640622 955.291021 637.541434 974.920288 650.627613c16.357723 9.814634 42.53008 3.271545 52.344714-13.086179s19.629268-32.715446 22.900812-52.344713c6.543089-16.357723 9.814634-35.98699 9.814633-55.616258 0-55.616258-22.900812-104.689427-58.887802-140.676418-39.258535-39.258535-88.331704-62.159347-143.947962-62.159347a204.798691 204.798691 0 0 0-196.292676 150.491051 39.258535 39.258535 0 0 0 26.172357 49.073169c22.900812 3.271545 42.53008-6.543089 49.073169-29.443901 6.543089-26.172357 22.900812-49.073169 45.801624-65.430892 19.629268-16.357723 45.801624-26.172357 75.245526-26.172357 32.715446 0 65.430892 13.086178 88.331704 35.986991 19.629268 22.900812 35.98699 55.616258 35.98699 88.331704 0 13.086178-3.271545 22.900812-6.543089 35.98699-3.271545 9.814634-6.543089 19.629268-13.086178 29.443902z"  horiz-adv-x="1059" />

    
    <glyph glyph-name="donut_large" unicode="&#59008;" d="M469.333333 679.253333V810.666667C256 789.333333 85.333333 605.44 85.333333 384s170.666667-405.333333 384-426.666667v131.413334c-128 20.48-256 145.066667-256 295.253333s128 274.773333 256 295.253333zM809.386667 426.666667H938.666667c-20.053333 213.333333-170.666667 363.946667-384 384v-131.413334C682.666667 660.906667 791.04 554.666667 809.386667 426.666667zM554.666667 88.746667V-42.666667c213.333333 20.053333 363.946667 170.666667 384 384h-129.28C791.04 213.333333 682.666667 107.093333 554.666667 88.746667z"  horiz-adv-x="1024" />

    
    <glyph glyph-name="face" unicode="&#59014;" d="M384 394.666667a53.333333 53.333333 0 0 1 0-106.666667 53.333333 53.333333 0 0 1 0 106.666667z m256 0a53.333333 53.333333 0 0 1 0-106.666667 53.333333 53.333333 0 0 1 0 106.666667zM512 810.666667C276.266667 810.666667 85.333333 619.733333 85.333333 384s190.933333-426.666667 426.666667-426.666667 426.666667 190.933333 426.666667 426.666667S747.733333 810.666667 512 810.666667z m0-768c-188.16 0-341.333333 153.173333-341.333333 341.333333 0 12.373333 0.853333 24.533333 2.133333 36.48 100.48 44.586667 180.693333 126.933333 222.293333 229.12 77.226667-108.8 204.16-180.266667 347.946667-180.266667 33.066667 0 65.28 4.053333 96 11.306667 9.173333-30.72 14.293333-63.146667 14.293333-96.64 0-188.16-153.173333-341.333333-341.333333-341.333333z"  horiz-adv-x="1024" />

    
    <glyph glyph-name="schedule" unicode="&#59042;" d="M511.786667 810.666667C276.053333 810.666667 85.333333 619.733333 85.333333 384s190.72-426.666667 426.453334-426.666667C747.52-42.666667 938.666667 148.266667 938.666667 384S747.52 810.666667 511.786667 810.666667zM512 42.666667c-188.586667 0-341.333333 152.746667-341.333333 341.333333S323.413333 725.333333 512 725.333333s341.333333-152.746667 341.333333-341.333333-152.746667-341.333333-341.333333-341.333333z m21.333333 554.666666h-64v-256l223.786667-134.4L725.333333 259.413333l-192 113.92z"  horiz-adv-x="1024" />

    
    <glyph glyph-name="menu" unicode="&#59310;" d="M128 128h768v85.333333H128v-85.333333z m0 213.333333h768v85.333334H128v-85.333334z m0 298.666667v-85.333333h768v85.333333H128z"  horiz-adv-x="1024" />

    
    <glyph glyph-name="dangao" unicode="&#58897;" d="M946.257689 262.56799V435.35854a202.441 202.441 0 0 1-127.803661 188.12699V727.262104a38.341098 38.341098 0 1 1-76.682197 0V639.844399h-87.417705a250.495177 250.495177 0 0 1 49.076606 132.660201 122.691515 122.691515 0 0 1-191.705492 102.242929 122.691515 122.691515 0 0 1-191.705493-102.242929A253.818072 253.818072 0 0 1 372.419249 639.844399H281.678649V728.284533a38.341098 38.341098 0 1 1-76.682197 0v-103.776573A202.441 202.441 0 0 1 77.19279 435.35854v-173.812979A202.441 202.441 0 0 1 0.510593 103.06902v-230.046591h1022.429293v230.046591a202.441 202.441 0 0 1-76.682197 159.49897zM442.96687 818.769525a45.753711 45.753711 0 0 0 37.574276-19.426156L511.72524 755.890124l31.184093 43.453245a46.264926 46.264926 0 0 0 83.839202-25.560733c0-44.986889-38.341098-108.377505-107.86629-177.135875a9.457471 9.457471 0 0 0-6.390183-2.556073 7.157005 7.157005 0 0 0-5.878969 2.556073c-68.75837 71.570051-109.911149 137.51674-109.911149 175.857839A46.264926 46.264926 0 0 0 442.96687 818.769525z m-163.33308-255.607323h153.364394c5.878968-6.390183 11.757937-12.780366 17.636906-18.659335a84.094809 84.094809 0 0 1 60.323328-25.560732 84.606024 84.606024 0 0 1 60.067721 25.560732c6.390183 6.390183 13.035973 13.035973 19.426156 19.937372h151.575143A126.01441 126.01441 0 0 0 858.32877 486.480005a89.973778 89.973778 0 0 1-63.135009 25.560732 97.130783 97.130783 0 0 1-75.40416-37.829883c-11.50233-12.269152-13.291581-13.291581-19.170549-13.291581s-7.66822 0-19.170549 13.291581a94.063495 94.063495 0 0 1-150.808321 0c-11.50233-12.269152-13.291581-13.291581-19.170549-13.291581s-7.66822 0-19.17055 13.291581a94.063495 94.063495 0 0 1-150.80832 0c-11.50233-12.269152-13.291581-13.291581-19.17055-13.291581s-7.66822 0-19.170549 13.291581A97.130783 97.130783 0 0 1 227.745504 512.040737a89.71817 89.71817 0 0 1-64.157438-25.560732 125.503196 125.503196 0 0 0 116.045724 76.682197zM153.874987 385.77072a105.05461 105.05461 0 0 1 54.955575 35.27381c11.246722 12.524759 13.035973 13.291581 18.914942 13.291581s7.66822 0 19.170549-13.291581A97.897605 97.897605 0 0 1 322.320213 384.237076a97.897605 97.897605 0 0 1 75.404161 37.829884c11.50233 12.524759 13.291581 13.291581 19.170549 13.29158s7.66822 0 19.170549-13.29158a94.063495 94.063495 0 0 1 150.808321 0c11.50233 12.524759 13.291581 13.291581 19.170549 13.29158s7.66822 0 19.170549-13.29158a94.063495 94.063495 0 0 1 150.808321 0c11.50233 12.524759 13.291581 13.291581 19.170549 13.29158s7.66822 0 19.17055-13.29158A105.821432 105.821432 0 0 1 869.575492 384.237076v-51.121465H153.874987zM202.951593 230.872682h617.547293a125.503196 125.503196 0 0 0 111.189186-67.991548 153.364394 153.364394 0 0 1-22.493444-20.959801c-11.50233-12.269152-13.291581-13.291581-19.426157-13.29158s-7.66822 0-19.170549 13.29158a94.063495 94.063495 0 0 1-150.808321 0c-11.50233-12.269152-13.291581-13.291581-19.170549-13.29158s-7.66822 0-19.170549 13.29158a94.063495 94.063495 0 0 1-150.808321 0c-11.50233-12.269152-13.291581-13.291581-19.170549-13.29158s-7.66822 0-19.17055 13.29158a94.063495 94.063495 0 0 1-150.80832 0c-11.50233-12.269152-13.291581-13.291581-19.17055-13.29158s-7.66822 0-19.170549 13.29158A97.130783 97.130783 0 0 1 227.745504 179.751217a97.641997 97.641997 0 0 1-75.404161-37.829884c-11.246722-13.291581-13.035973-13.291581-18.914942-13.29158s-7.66822 0-19.170549 13.29158a153.364394 153.364394 0 0 1-22.493444 20.704194A125.247588 125.247588 0 0 0 202.951593 230.872682zM946.257689-50.295374H77.19279v120.646657a88.440134 88.440134 0 0 1 56.233611-18.403727 98.408819 98.408819 0 0 1 76.682197 37.829883c11.246722 12.524759 13.035973 13.291581 18.914942 13.291581s7.66822 0 19.17055-13.291581a97.897605 97.897605 0 0 1 74.126123-37.829883 97.897605 97.897605 0 0 1 75.404161 37.829883c11.50233 12.524759 13.291581 13.291581 19.170549 13.291581s7.66822 0 19.170549-13.291581a94.063495 94.063495 0 0 1 150.808321 0c11.50233 12.524759 13.291581 13.291581 19.170549 13.291581s7.66822 0 19.170549-13.291581a94.063495 94.063495 0 0 1 150.808321 0c11.50233 12.524759 13.291581 13.291581 19.170549 13.291581s7.66822 0 19.17055-13.291581A96.619568 96.619568 0 0 1 889.768471 51.947556a88.695741 88.695741 0 0 1 56.489218 18.403727zM243.33755 830.78307m-38.341098 0a38.341098 38.341098 0 1 1 76.682197 0 38.341098 38.341098 0 1 1-76.682197 0ZM780.112929 830.78307m-38.341098 0a38.341098 38.341098 0 1 1 76.682197 0 38.341098 38.341098 0 1 1-76.682197 0Z"  horiz-adv-x="1024" />

    
    <glyph glyph-name="setting" unicode="&#58990;" d="M512 230.4c-85.333333 0-153.6 68.266667-153.6 153.6s68.266667 153.6 153.6 153.6 153.6-68.266667 153.6-153.6-68.266667-153.6-153.6-153.6z m0 221.866667c-38.4 0-68.266667-29.866667-68.266667-68.266667s29.866667-68.266667 68.266667-68.266667 68.266667 29.866667 68.266667 68.266667-29.866667 68.266667-68.266667 68.266667zM514.133333-64c-64 0-117.333333 51.2-117.333333 117.333333v4.266667c0 6.4-4.266667 12.8-12.8 14.933333h-2.133333c-6.4 2.133333-14.933333 2.133333-19.2-4.266666v-2.133334c-21.333333-21.333333-51.2-34.133333-83.2-34.133333s-59.733333 12.8-83.2 34.133333c-21.333333 21.333333-34.133333 51.2-34.133334 83.2s12.8 59.733333 34.133334 83.2l4.266666 2.133334c4.266667 4.266667 6.4 12.8 4.266667 19.2-2.133333 6.4-8.533333 10.666667-17.066667 10.666666h-6.4c-64 0-117.333333 51.2-117.333333 117.333334s51.2 117.333333 117.333333 117.333333h4.266667c6.4 0 12.8 4.266667 14.933333 12.8v2.133333c2.133333 6.4 2.133333 14.933333-4.266666 19.2h-2.133334C149.333333 578.133333 149.333333 652.8 194.133333 697.6c44.8 44.8 119.466667 44.8 164.266667 0l4.266667-2.133333c4.266667-4.266667 12.8-6.4 19.2-4.266667 2.133333 0 4.266667 2.133333 6.4 2.133333 4.266667 4.266667 6.4 8.533333 6.4 14.933334v6.4C394.666667 780.8 448 832 512 832s117.333333-51.2 117.333333-117.333333v-4.266667c0-6.4 4.266667-12.8 10.666667-17.066667 6.4-4.266667 14.933333-2.133333 21.333333 4.266667v4.266667c21.333333 21.333333 51.2 34.133333 83.2 34.133333s59.733333-12.8 83.2-34.133333c21.333333-21.333333 34.133333-51.2 34.133334-83.2s-12.8-59.733333-34.133334-83.2l-4.266666-2.133334c-4.266667-4.266667-6.4-12.8-4.266667-19.2 0-2.133333 2.133333-4.266667 2.133333-6.4 4.266667-4.266667 8.533333-6.4 14.933334-6.4h6.4c64 0 117.333333-51.2 117.333333-117.333333s-51.2-117.333333-117.333333-117.333333h-4.266667c-6.4 0-12.8-4.266667-17.066667-10.666667-2.133333-6.4-2.133333-14.933333 4.266667-19.2l2.133333-2.133333c44.8-44.8 44.8-119.466667 0-164.266667-44.8-44.8-119.466667-44.8-164.266666 0l-2.133334 2.133333c-4.266667 4.266667-12.8 6.4-19.2 4.266667-6.4-2.133333-10.666667-8.533333-10.666666-17.066667v-6.4c0-66.133333-53.333333-117.333333-117.333334-117.333333z m-96 215.466667c38.4-14.933333 66.133333-51.2 66.133334-93.866667v-4.266667c0-17.066667 14.933333-32 32-32s32 14.933333 32 32v6.4c0 40.533333 25.6 78.933333 61.866666 93.866667 38.4 17.066667 83.2 8.533333 113.066667-21.333333l2.133333-2.133334c12.8-12.8 32-12.8 44.8 0 6.4 6.4 8.533333 12.8 8.533334 21.333334s-4.266667 17.066667-8.533334 21.333333l-2.133333 2.133333c-29.866667 29.866667-38.4 74.666667-21.333333 115.2 17.066667 38.4 53.333333 61.866667 93.866666 61.866667h4.266667c17.066667 0 32 14.933333 32 32s-14.933333 32-32 32h-6.4c-40.533333 0-78.933333 25.6-93.866667 61.866667-2.133333 4.266667-2.133333 6.4-2.133333 10.666666-12.8 36.266667-4.266667 76.8 23.466667 106.666667l2.133333 2.133333c6.4 6.4 8.533333 12.8 8.533333 21.333334s-4.266667 17.066667-8.533333 21.333333c-6.4 6.4-12.8 8.533333-21.333333 8.533333s-17.066667-4.266667-21.333334-8.533333l-2.133333-2.133333c-29.866667-29.866667-74.666667-38.4-115.2-21.333334-38.4 17.066667-61.866667 53.333333-61.866667 93.866667v4.266667C544 731.733333 529.066667 746.666667 512 746.666667s-32-14.933333-32-32v-6.4c0-40.533333-25.6-78.933333-61.866667-93.866667-4.266667-2.133333-6.4-2.133333-10.666666-2.133333-36.266667-12.8-76.8-4.266667-106.666667 23.466666l-2.133333 2.133334c-12.8 12.8-32 12.8-44.8 0-6.4-6.4-8.533333-12.8-8.533334-21.333334s4.266667-17.066667 8.533334-21.333333l2.133333-2.133333c29.866667-29.866667 38.4-74.666667 21.333333-113.066667-14.933333-38.4-51.2-66.133333-93.866666-66.133333h-4.266667c-17.066667 0-32-14.933333-32-32s14.933333-32 32-32h6.4c40.533333 0 78.933333-25.6 93.866667-61.866667 17.066667-38.4 8.533333-83.2-21.333334-113.066667v-4.266666c-6.4-6.4-8.533333-12.8-8.533333-21.333334s4.266667-17.066667 8.533333-21.333333c6.4-6.4 12.8-8.533333 21.333334-8.533333s17.066667 4.266667 21.333333 8.533333l2.133333 2.133333c32 29.866667 76.8 36.266667 115.2 21.333334z m366.933334 121.6z"  horiz-adv-x="1024" />

    
    <glyph glyph-name="guanbi" unicode="&#58903;" d="M575.4368 384l333.5168 333.6704a43.7248 43.7248 0 0 1 0 61.44l-1.792 1.8432a43.6736 43.6736 0 0 1-61.44 0l-333.568-334.1312L178.688 780.9536a43.6736 43.6736 0 0 1-61.44 0l-1.8432-1.792a42.9056 42.9056 0 0 1 0-61.44L448.9216 384l-333.568-333.6704a43.7248 43.7248 0 0 1 0-61.44l1.8432-1.8432a43.6736 43.6736 0 0 1 61.44 0l333.5168 333.6704 333.568-333.6704a43.6736 43.6736 0 0 1 61.44 0l1.792 1.792a43.7248 43.7248 0 0 1 0 61.44L575.488 384z"  horiz-adv-x="1024" />

    


  </font>
</defs>
</svg>
